# xmcd CD database file
#
# Track frame offsets:
#	150
#	17830
#	31987
#	46237
#	68780
#	91665
#	123082
#	142002
#	158600
#	172595
#	195597
#	214325
#	230917
#	245500
#
# Disc length: 3711 seconds
#
# Revision: 0
# Processed by: cddbd v1.5PL3 Copyright (c) Steve Scherf et al.
# Submitted via: CDex 1.51
#
DISCID=b40e7d0e
DTITLE=Wonderful Dixieland Vol 1 - Wonderful Dixieland Vol 1
DYEAR=1996
DGENRE=Jazz
TTITLE0=ALEX WELSH - If I Had A Talking Picture Of You
TTITLE1=HUMPHREY LYTTELTON - Never No Lament
TTITLE2=DIGBY FAIRWETHER - The Very Thought Of You
TTITLE3=ROY WILLIAMSON/JOHN BARNES - Tea For Two
TTITLE4=FIVE A SLIDE - Pink Panther
TTITLE5=ALEX WELSH - You Are The Sunshine Of My Life
TTITLE6=THE ALAN ELSDON BAND - (Can't Get No) Satisfaction
TTITLE7=ROD MASON - Uncle Joe's Mint Balls
TTITLE8=HUMPHREY LYTTELTON - Sprauncy
TTITLE9=MAX COLLIE - Cheek To Cheek
TTITLE10=TERRY LIGHTFOOD - Ol' Man Mose
TTITLE11=THE ALAN ELSDON BAND - Diga Diga Doo
TTITLE12=HUMPHREY LYTTELTON - Don't Get Around Much Anymore I Let A Song Go Out Of My Heart
TTITLE13=ALEX WELSH - Ory's Creole Trombone
EXTD=YEAR: 1996
EXTT0=
EXTT1=
EXTT2=
EXTT3=
EXTT4=
EXTT5=
EXTT6=
EXTT7=
EXTT8=
EXTT9=
EXTT10=
EXTT11=
EXTT12=
EXTT13=
PLAYORDER=
